<?xml version="1.0" standalone="no"?>
<!DOCTYPE svg PUBLIC "-//W3C//DTD SVG 20010904//EN"
 "http://www.w3.org/TR/2001/REC-SVG-20010904/DTD/svg10.dtd">
<svg version="1.0" xmlns="http://www.w3.org/2000/svg"
 width="400.000000pt" height="400.000000pt" viewBox="0 0 400.000000 400.000000"
 preserveAspectRatio="xMidYMid meet">
<metadata>
Created by potrace 1.14, written by Peter Selinger 2001-2017
</metadata>
<g transform="translate(0.000000,400.000000) scale(0.100000,-0.100000)"
fill="#000000" stroke="none">
<path d="M2628 3366 c-19 -17 -55 -47 -78 -66 -49 -40 -243 -202 -280 -234
-153 -129 -261 -216 -272 -216 -7 0 -26 13 -43 28 -16 15 -88 76 -160 136 -71
60 -150 125 -175 146 -25 21 -76 64 -115 96 -38 32 -83 71 -99 86 -56 51 -71
54 -110 24 -19 -14 -39 -26 -44 -26 -6 0 -12 -3 -14 -7 -1 -5 -41 -33 -88 -63
-47 -30 -89 -58 -95 -63 -5 -4 -30 -20 -55 -36 -57 -37 -344 -223 -479 -313
-57 -37 -107 -68 -112 -68 -24 0 3 -26 147 -141 86 -68 161 -129 167 -134 11
-9 136 -110 177 -142 8 -6 43 -35 77 -63 74 -60 70 -61 189 16 46 30 88 54 93
54 5 0 11 4 13 8 3 8 31 26 186 119 35 21 76 46 90 55 15 10 40 25 56 34 16 9
61 37 100 62 39 25 73 44 75 43 2 -2 7 1 10 6 3 5 52 37 108 71 116 71 95 71
213 -3 30 -19 86 -54 124 -78 100 -61 106 -64 426 -262 260 -160 289 -181 273
-193 -10 -7 -67 -43 -128 -79 -60 -37 -112 -69 -115 -72 -3 -3 -17 -13 -31
-21 -23 -13 -178 -108 -437 -269 -48 -30 -96 -59 -107 -65 -57 -32 -106 -68
-103 -76 2 -5 75 -68 163 -142 88 -73 171 -143 185 -154 14 -12 68 -57 120
-100 52 -43 97 -81 100 -84 3 -3 24 -20 46 -38 36 -28 43 -30 54 -17 7 8 17
15 22 15 5 0 14 5 21 11 7 5 48 33 92 62 94 60 477 311 616 403 52 35 115 74
138 87 l42 24 -23 16 c-13 8 -35 26 -50 39 -14 13 -148 120 -296 238 -149 118
-273 221 -276 228 -3 7 33 43 92 89 120 96 112 90 140 112 13 11 40 33 60 49
20 16 66 53 102 82 36 29 104 84 153 122 48 38 87 71 87 74 0 2 -87 61 -192
130 -106 69 -211 138 -233 153 -22 15 -47 31 -55 34 -15 7 -103 67 -127 87 -7
5 -14 10 -17 10 -5 0 -285 184 -302 198 -7 6 -23 -1 -46 -22z"/>
<path d="M750 2014 c-162 -130 -308 -247 -324 -261 l-28 -25 48 -32 c27 -17
51 -34 52 -38 2 -5 8 -8 12 -8 5 0 89 -53 187 -117 98 -65 186 -122 195 -128
10 -5 115 -74 235 -152 119 -79 219 -139 222 -135 4 5 74 64 156 132 83 68
159 131 170 142 11 10 70 60 131 110 61 51 130 109 153 128 l42 35 -168 103
c-92 57 -203 126 -246 153 -43 27 -83 49 -88 49 -5 0 -9 5 -9 10 0 6 -4 10 -9
10 -5 0 -66 36 -136 80 -70 44 -128 80 -130 80 -4 0 -80 49 -127 81 -15 11
-31 19 -35 19 -5 0 -141 -106 -303 -236z"/>
<path d="M1945 1498 c-27 -22 -66 -54 -85 -72 -19 -17 -51 -43 -70 -58 -19
-15 -48 -38 -63 -52 -16 -13 -47 -40 -69 -58 -49 -40 -164 -135 -232 -192 -80
-67 -83 -68 -108 -55 -13 6 -44 27 -71 45 -26 19 -50 34 -53 34 -3 0 -20 11
-37 23 -18 13 -48 33 -67 45 l-35 21 1 -101 c1 -87 3 -103 20 -115 15 -11 225
-139 352 -214 280 -166 369 -220 377 -226 6 -5 51 -32 101 -61 90 -51 118 -61
128 -43 3 4 88 57 188 117 101 60 186 112 189 117 3 5 8 7 10 6 2 -2 15 4 29
13 64 41 243 148 246 148 4 0 41 23 124 76 19 12 55 33 80 47 l45 25 3 107 3
106 -87 -56 c-48 -31 -110 -72 -138 -91 -28 -19 -54 -34 -59 -34 -7 0 -230
180 -247 199 -3 3 -41 35 -85 71 -44 36 -91 74 -105 86 -141 120 -220 184
-227 183 -4 0 -30 -18 -58 -41z"/>
</g>
</svg>
